<svg xmlns="http://www.w3.org/2000/svg" viewBox="0 0 320 96" width="320" height="96" role="img" aria-label="AI QE logo">
  <defs>
    <linearGradient id="aiqeMarkGrad" x1="0%" y1="0%" x2="100%" y2="100%">
      <stop offset="0%" stop-color="#014D36"></stop>
      <stop offset="55%" stop-color="#16945A"></stop>
      <stop offset="100%" stop-color="#82E3A7"></stop>
    </linearGradient>
  </defs>
  
  <g transform="translate(8 8)">
    <circle cx="40" cy="40" r="38" fill="none" stroke="url(#aiqeMarkGrad)" stroke-width="3"></circle>
    
    <path d="M40 14 C 22 22 14 38 22 60 C 44 64 60 50 62 28 C 56 22 50 18 40 14 Z" fill="url(#aiqeMarkGrad)" opacity="0.95"></path>
    
    <path d="M28 56 C 34 46 42 38 56 26" fill="none" stroke="#FFFFFF" stroke-width="1.6" stroke-linecap="round"></path>
    <path d="M34 52 L 39 52" stroke="#FFFFFF" stroke-width="1.6" stroke-linecap="round"></path>
    <path d="M40 46 L 46 46" stroke="#FFFFFF" stroke-width="1.6" stroke-linecap="round"></path>
    <path d="M44 40 L 50 40" stroke="#FFFFFF" stroke-width="1.6" stroke-linecap="round"></path>
    
    <circle cx="56" cy="26" r="2.5" fill="#FFFFFF"></circle>
    <circle cx="22" cy="60" r="2.5" fill="#FFFFFF"></circle>
  </g>
  
  <g transform="translate(104 0)" font-family="&#39;Space Grotesk&#39;, sans-serif" font-weight="700" fill="#101311">
    <text x="0" y="58" font-size="42" letter-spacing="-1">AI QE</text>
    <text x="2" y="78" font-family="&#39;IBM Plex Mono&#39;, monospace" font-size="10" font-weight="500" letter-spacing="3" fill="#5D665F">QUALITY · INTELLIGENCE</text>
  </g>
</svg>