<svg xmlns="http://www.w3.org/2000/svg" viewBox="0 0 600 600" width="600" height="600" role="img" aria-label="AI QE organic circuit pattern">
  <defs>
    <pattern id="circuitDots" x="0" y="0" width="40" height="40" patternUnits="userSpaceOnUse">
      <circle cx="20" cy="20" r="1" fill="#16945A" opacity="0.35"></circle>
    </pattern>
  </defs>
  <rect width="600" height="600" fill="url(#circuitDots)"></rect>
  
  <g fill="none" stroke="#16945A" stroke-width="1" stroke-linecap="round" opacity="0.55">
    <path d="M0 300 C 120 220, 200 200, 300 300 S 480 380, 600 300"></path>
    <path d="M300 0 C 220 120, 200 200, 300 300 S 380 480, 300 600"></path>
    <path d="M80 80 C 160 160, 220 200, 300 300"></path>
    <path d="M520 80 C 440 160, 380 200, 300 300"></path>
    <path d="M80 520 C 160 440, 220 400, 300 300"></path>
    <path d="M520 520 C 440 440, 380 400, 300 300"></path>
    <path d="M150 300 L 200 300"></path>
    <path d="M400 300 L 450 300"></path>
    <path d="M300 150 L 300 200"></path>
    <path d="M300 400 L 300 450"></path>
  </g>
  <g fill="#16945A" opacity="0.7">
    <circle cx="300" cy="300" r="3"></circle>
    <circle cx="200" cy="300" r="2"></circle>
    <circle cx="400" cy="300" r="2"></circle>
    <circle cx="300" cy="200" r="2"></circle>
    <circle cx="300" cy="400" r="2"></circle>
    <circle cx="80" cy="80" r="2"></circle>
    <circle cx="520" cy="80" r="2"></circle>
    <circle cx="80" cy="520" r="2"></circle>
    <circle cx="520" cy="520" r="2"></circle>
  </g>
</svg>